<svg width="233" height="30" viewBox="0 0 233 30" fill="none" xmlns="http://www.w3.org/2000/svg">
<g clip-path="url(#clip0_306_5346)">
<path d="M18.0665 0.320244C15.1631 -0.286344 12.145 -0.0183365 9.3939 1.09037C6.64279 2.19909 4.28224 4.0987 2.61076 6.549C0.939271 8.99931 0.0319274 11.8902 0.00346591 14.8562C-0.0249956 17.8222 0.826703 20.73 2.45086 23.2119C4.07501 25.6939 6.39868 27.6384 9.128 28.7997C11.8573 29.961 14.8697 30.2869 17.7843 29.7361C20.6988 29.1854 23.3845 27.7827 25.5019 25.7056C27.6192 23.6284 29.0731 20.97 29.6796 18.0665C30.0825 16.1387 30.1018 14.1505 29.7362 12.2152C29.3707 10.28 28.6275 8.43577 27.5491 6.78782C26.4707 5.13987 25.0782 3.7205 23.4511 2.61078C21.8241 1.50107 19.9944 0.722734 18.0665 0.320244Z" fill="white"/>
<path d="M11.1909 13.516C6.7527 14.808 3.03585 11.9907 1.92631 9.78219C1.62478 10.5383 1.38912 11.3191 1.22198 12.1158C1.15409 12.4468 1.09681 12.7756 1.05226 13.1044C1.05226 13.1851 1.03104 13.2636 1.02256 13.3442C1.00771 13.463 0.994979 13.5818 0.984372 13.6985C0.969521 13.8682 0.954671 14.0379 0.946185 14.2097V14.301C0.946185 14.5322 0.929213 14.7635 0.929213 14.9947C0.928585 15.4737 0.95266 15.9523 1.00134 16.4288C1.00134 16.4288 1.00134 16.4458 1.00134 16.4543C1.02397 16.6707 1.05155 16.8828 1.08408 17.0907C1.08408 17.1395 1.09893 17.1862 1.10742 17.2329C1.13075 17.3856 1.15833 17.5362 1.18803 17.6869C1.20925 17.7972 1.23259 17.899 1.25592 18.0157L1.3132 18.2576C1.35422 18.4329 1.39877 18.6069 1.44686 18.7794L1.45959 18.8197C1.86568 20.249 2.49504 21.6051 3.32437 22.8379C5.37107 25.8801 8.52346 28.0043 12.1116 28.7589H12.1307C12.4489 28.8268 12.7671 28.882 13.0832 28.9244H13.1235C13.3505 28.9541 13.5775 28.9796 13.8045 28.9987L14.1588 29.0262H14.3879C14.6001 29.0369 14.7995 29.0432 15.0074 29.0432C15.2153 29.0432 15.4529 29.0432 15.6757 29.0262H15.7818C15.9939 29.0262 16.2167 28.9987 16.4331 28.9774H16.5009C16.6813 28.9584 16.8616 28.935 17.0419 28.9096L17.2371 28.8799C17.4174 28.8523 17.5956 28.8205 17.7738 28.7844L18.0602 28.7229L18.3169 28.6635C18.7285 28.5645 19.133 28.4471 19.5304 28.3113H19.5516C20.8232 27.8762 22.0262 27.2618 23.1242 26.4868L23.1942 26.438C23.5125 26.211 23.818 25.9692 24.115 25.7188L24.3271 25.5321L24.5393 25.3518C24.6687 25.2309 24.7981 25.1078 24.9233 24.9848L25.0357 24.8702C25.1439 24.7599 25.2478 24.6581 25.356 24.5329L25.4642 24.4162L25.5258 24.3462C17.3304 31.3068 6.73149 21.7283 11.193 13.516" fill="#00aabc" />
<path d="M14.9989 0.922848C12.6652 0.9219 10.3679 1.50182 8.31429 2.61031C6.26063 3.71881 4.51516 5.32102 3.23528 7.27247C2.82073 7.90132 2.45749 8.56254 2.14907 9.2497C5.84259 11.927 10.0347 10.6308 13.3081 9.26243C16.9953 7.72222 22.9991 6.78877 26.9429 12.1901C25.9079 11.1672 24.5845 10.4857 23.1507 10.2372C21.7168 9.98875 20.2413 10.1852 18.9224 10.8002C17.6035 11.4151 16.5045 12.4191 15.7732 13.6772C15.0418 14.9353 14.7131 16.3871 14.8313 17.8375C15.1559 21.7601 18.5927 24.6072 22.5196 24.3568C25.0442 24.1977 29.0772 21.8301 29.0772 14.9989C29.0766 11.2655 27.5931 7.68523 24.953 5.04551C22.3129 2.40579 18.7323 0.922848 14.9989 0.922848Z" fill="#00aabc" />
<path d="M32.7239 10.251H37.2894V23.0818H41.1929V10.251H45.7584V6.91818H32.7239V10.251Z" fill="white"/>
<path d="M77.3898 23.0797L73.168 16.1636C74.1347 15.8978 74.9956 15.3399 75.6332 14.5662C76.2399 13.7775 76.5541 12.8027 76.5221 11.8082C76.551 10.9982 76.3705 10.1944 75.9981 9.47458C75.6603 8.86509 75.178 8.34786 74.5936 7.96832C73.9868 7.57914 73.3138 7.30446 72.6079 7.15791C71.8619 6.99767 71.101 6.9173 70.3379 6.91819H64.1729V23.0797H67.9916V16.6664H69.3217L72.8307 23.0797H77.3898ZM72.4021 12.8775C72.2321 13.1304 71.9988 13.3345 71.7254 13.4693C71.4358 13.6117 71.1259 13.7083 70.8068 13.7557C70.4806 13.8084 70.1507 13.8354 69.8203 13.8364H67.9619V10.0686H70.0494C70.3533 10.0699 70.6567 10.0926 70.9574 10.1365C71.2527 10.1774 71.5393 10.2663 71.806 10.3996C72.0549 10.5267 72.2673 10.7151 72.4234 10.9469C72.5972 11.2261 72.6816 11.5518 72.6652 11.8804C72.6812 12.2344 72.5895 12.5851 72.4021 12.8859" fill="white"/>
<path d="M86.0944 14.3604L93.0571 6.91818H88.1713L82.3966 13.4927H82.3287V6.91818H78.5164V23.0797H82.3287V15.6396H82.3733L88.3771 23.0797H93.4687L86.0944 14.3604Z" fill="white"/>
<path d="M104.855 23.0797H108.758V16.2315L114.968 6.91818H110.402L106.955 12.8987L103.507 6.91818H98.7829L104.855 16.2315V23.0797Z" fill="white"/>
<path d="M126.918 19.7468H119.406V16.3928H126.118V13.2657H119.406V10.2065H126.507V6.91818H115.64V23.0797H126.918V19.7468Z" fill="white"/>
<path d="M57.5942 23.0351C58.411 22.7417 59.1606 22.2872 59.7984 21.6986C60.4092 21.1238 60.8877 20.4231 61.2007 19.645C61.5383 18.7993 61.7055 17.8952 61.6929 16.9847V10.2998H57.7894V16.6643C57.7919 17.0883 57.7377 17.5107 57.6282 17.9202C57.5272 18.3057 57.3489 18.6666 57.1041 18.981C56.8521 19.3024 56.527 19.5592 56.1558 19.7299C55.2558 20.0947 54.2491 20.0947 53.3491 19.7299C52.9809 19.5631 52.6596 19.308 52.4135 18.9873C52.1738 18.6695 51.9954 18.3098 51.8874 17.9266C51.7729 17.5178 51.7158 17.0952 51.7177 16.6707V10.3062H47.8354V16.9847C47.8239 17.8939 47.9866 18.797 48.3148 19.645C48.6187 20.4201 49.0862 21.1205 49.6853 21.6986C50.3088 22.288 51.0468 22.743 51.8535 23.0351C53.7137 23.6744 55.734 23.6744 57.5942 23.0351Z" fill="white"/>
<path d="M98.1082 6.91818H94.1813V9.31547H98.1082V6.91818Z" fill="white"/>
<path d="M51.7155 6.91818H47.8353V9.31547H51.7155V6.91818Z" fill="white"/>
<path d="M61.6929 6.91818H57.8127V9.31547H61.6929V6.91818Z" fill="white"/>
<path d="M98.1082 10.2998H94.1813V23.0818H98.1082V10.2998Z" fill="white"/>
<path d="M140.903 10.058C141.124 9.92476 141.368 9.83543 141.622 9.79492C141.882 9.75048 142.146 9.72778 142.409 9.72703C142.952 9.73648 143.485 9.86465 143.973 10.1025C144.485 10.3327 144.935 10.681 145.286 11.1187L147.775 8.48596C147.05 7.82622 146.199 7.32093 145.273 7.00092C144.376 6.67688 143.431 6.50758 142.477 6.50024C141.715 6.50097 140.956 6.59792 140.218 6.78877C139.5 6.96648 138.819 7.27188 138.209 7.6904C137.617 8.09966 137.125 8.63787 136.771 9.26455C136.389 9.97197 136.2 10.7672 136.223 11.5706C136.204 12.2092 136.325 12.8442 136.577 13.4312C136.8 13.9232 137.118 14.3661 137.513 14.7337C137.906 15.0934 138.353 15.3897 138.837 15.612C139.33 15.8405 139.837 16.0389 140.354 16.2061C140.886 16.3737 141.364 16.5285 141.781 16.6728C142.151 16.7942 142.507 16.9549 142.842 17.1522C143.095 17.3025 143.316 17.5007 143.494 17.7357C143.649 17.9633 143.729 18.2344 143.721 18.51C143.728 18.7952 143.665 19.0779 143.538 19.3331C143.423 19.5538 143.255 19.742 143.048 19.8805C142.829 20.0233 142.585 20.124 142.329 20.1775C142.05 20.2393 141.766 20.2699 141.48 20.2687C140.807 20.2609 140.145 20.0929 139.55 19.7787C138.948 19.4862 138.415 19.0697 137.986 18.5567L135.44 21.1597C136.196 21.9307 137.118 22.5198 138.135 22.8824C139.208 23.2844 140.345 23.4892 141.491 23.487C142.27 23.4886 143.045 23.3815 143.795 23.1688C144.513 22.969 145.188 22.6358 145.783 22.1865C146.364 21.7392 146.837 21.1654 147.164 20.5084C147.514 19.7569 147.682 18.9335 147.656 18.1048C147.68 17.4001 147.515 16.7018 147.176 16.083C146.866 15.5547 146.455 15.0932 145.965 14.7253C145.47 14.3556 144.924 14.0598 144.344 13.847C143.753 13.6263 143.182 13.4248 142.632 13.2423C142.252 13.1193 141.911 13.0026 141.605 12.8881C141.333 12.7891 141.071 12.6648 140.823 12.5168C140.62 12.3972 140.448 12.2324 140.32 12.0352C140.2 11.828 140.141 11.5912 140.15 11.3521C140.136 11.0733 140.21 10.7971 140.362 10.5629C140.504 10.3605 140.687 10.19 140.899 10.0622" fill="white"/>
<path d="M163.673 16.6898H166.749V19.6344C166.384 19.7908 166 19.9019 165.608 19.9653C165.178 20.0348 164.743 20.0689 164.307 20.0672C163.583 20.0814 162.862 19.9538 162.186 19.6917C161.598 19.4591 161.068 19.1007 160.633 18.6415C160.207 18.1782 159.884 17.6292 159.687 17.0313C159.467 16.3693 159.359 15.6753 159.366 14.9777C159.358 14.2877 159.479 13.6021 159.721 12.9559C159.942 12.3628 160.28 11.8198 160.714 11.3585C161.139 10.9094 161.651 10.552 162.22 10.3083C162.819 10.0539 163.464 9.92602 164.114 9.93282C164.844 9.92064 165.567 10.0653 166.236 10.3571C166.811 10.6035 167.326 10.9736 167.742 11.4412L170.207 8.63235C169.438 7.92805 168.527 7.39513 167.536 7.06881C166.397 6.67378 165.198 6.47647 163.991 6.4854C162.817 6.47505 161.65 6.67626 160.546 7.07942C159.513 7.45294 158.566 8.03009 157.761 8.77661C156.959 9.52907 156.325 10.4421 155.9 11.4561C155.439 12.5705 155.21 13.7674 155.227 14.9735C155.209 16.1675 155.435 17.3527 155.889 18.457C156.308 19.4698 156.934 20.3839 157.727 21.1407C158.536 21.9021 159.491 22.4923 160.533 22.876C161.677 23.2954 162.888 23.5039 164.106 23.4913C165.27 23.5009 166.431 23.3705 167.564 23.103C168.525 22.8794 169.457 22.5425 170.339 22.0996V13.5394H163.673V16.6898Z" fill="white"/>
<path d="M186.986 8.76812C186.179 8.0186 185.227 7.44116 184.19 7.07093C181.917 6.27888 179.443 6.27888 177.17 7.07093C176.137 7.44329 175.19 8.02058 174.386 8.76812C173.591 9.5132 172.964 10.4195 172.547 11.4263C172.092 12.538 171.867 13.7301 171.885 14.931C171.87 16.1317 172.095 17.3232 172.547 18.4358C172.965 19.4586 173.592 20.3834 174.386 21.1513C175.186 21.9156 176.133 22.5095 177.17 22.8972C179.437 23.7204 181.922 23.7204 184.19 22.8972C185.231 22.5117 186.182 21.9176 186.986 21.1513C187.78 20.3833 188.406 19.4585 188.823 18.4358C189.275 17.3232 189.5 16.1317 189.485 14.931C189.503 13.7301 189.278 12.538 188.823 11.4263C188.407 10.4196 187.781 9.51328 186.986 8.76812ZM184.966 16.9507C184.756 17.5383 184.43 18.0779 184.007 18.5376C183.595 18.9793 183.098 19.3329 182.546 19.5771C181.953 19.825 181.317 19.9526 180.674 19.9526C180.032 19.9526 179.396 19.825 178.803 19.5771C178.253 19.3349 177.759 18.9809 177.352 18.5376C176.936 18.0756 176.615 17.5364 176.406 16.9507C175.952 15.6629 175.948 14.2593 176.393 12.9687C176.597 12.3872 176.92 11.8546 177.342 11.4051C177.769 10.9524 178.286 10.5937 178.86 10.3519C179.434 10.1101 180.052 9.99048 180.674 10.0007C181.322 9.99308 181.963 10.121 182.558 10.3762C183.11 10.6151 183.607 10.9654 184.018 11.4051C184.434 11.859 184.756 12.3903 184.966 12.9687C185.197 13.597 185.313 14.2617 185.308 14.931C185.315 15.6192 185.199 16.3031 184.966 16.9507Z" fill="white"/>
<path d="M202.727 14.5662C203.335 13.7777 203.65 12.803 203.618 11.8082C203.646 10.9983 203.466 10.1948 203.094 9.47458C202.756 8.86555 202.274 8.34846 201.69 7.96832C201.083 7.57914 200.41 7.30446 199.704 7.15791C198.958 6.99755 198.196 6.91719 197.432 6.91819H191.28V23.0797H195.099V16.6664H196.429L199.938 23.0797H204.503L200.269 16.1636C201.235 15.8983 202.097 15.3403 202.734 14.5662M199.503 12.869C199.333 13.1224 199.1 13.3266 198.826 13.4609C198.537 13.6029 198.228 13.6995 197.909 13.7473C197.583 13.7998 197.253 13.8267 196.923 13.8279H195.065V10.0686H197.152C197.455 10.0699 197.758 10.0926 198.058 10.1365C198.353 10.1771 198.64 10.266 198.907 10.3996C199.156 10.5267 199.369 10.715 199.526 10.9469C199.698 11.2269 199.78 11.5525 199.762 11.8804C199.777 12.2347 199.684 12.5853 199.496 12.8859" fill="white"/>
<path d="M217.275 6.91818H204.24V10.251H208.806V23.0797H212.709V10.251H217.275V6.91818Z" fill="white"/>
<path d="M225.381 6.91818H221.59L214.801 23.0797H219.044L220.232 19.8975H226.486L227.742 23.0797H232.091L225.381 6.91818ZM221.363 16.781L223.416 11.2439L225.425 16.7916L221.363 16.781Z" fill="white"/>
<path d="M153.42 6.91818H149.493V9.31547H153.42V6.91818Z" fill="white"/>
<path d="M153.42 10.2998H149.493V23.0818H153.42V10.2998Z" fill="white"/>
</g>
<defs>
<clipPath id="clip0_306_5346">
<rect width="232.091" height="30" fill="white"/>
</clipPath>
</defs>
</svg>
