<svg width="30" height="30" viewBox="0 0 30 30" fill="none" xmlns="http://www.w3.org/2000/svg">
<ellipse  cx="14.9744" cy="14.9891" rx="14.9744" ry="14.9891" fill="white" class="bg-color"/>
<path d="M10.9368 13.4349C6.20667 14.8133 2.24526 11.8076 1.06272 9.45154C0.741342 10.2582 0.490183 11.0912 0.312041 11.9412C0.239687 12.2942 0.178638 12.645 0.131155 12.9959C0.131155 13.0819 0.108544 13.1656 0.0995002 13.2516C0.0836726 13.3784 0.0701061 13.5051 0.0588007 13.6296C0.0429732 13.8106 0.0271457 13.9917 0.0181014 14.175V14.2724C0.0181014 14.5191 1.27722e-05 14.7658 1.27722e-05 15.0125C-0.00065683 15.5234 0.0250027 16.0341 0.0768893 16.5424C0.0768893 16.5424 0.0768893 16.5605 0.0768893 16.5696C0.101007 16.8005 0.130402 17.0268 0.165071 17.2486C0.165071 17.3006 0.180899 17.3504 0.189943 17.4002C0.214815 17.5632 0.244209 17.7239 0.275864 17.8846C0.298475 18.0023 0.323347 18.1109 0.348219 18.2354L0.409268 18.4934C0.452982 18.6805 0.500465 18.8661 0.551716 19.0502L0.565282 19.0932C0.998102 20.6179 1.66887 22.0647 2.55277 23.3799C4.73413 26.6254 8.09394 28.8916 11.9182 29.6967H11.9385C12.2777 29.7691 12.6168 29.828 12.9537 29.8732H12.9967C13.2386 29.9049 13.4806 29.9321 13.7225 29.9525L14.1001 29.9819H14.3443C14.5704 29.9932 14.7829 30 15.0045 30C15.2261 30 15.4793 30 15.7168 29.9819H15.8298C16.0559 29.9819 16.2933 29.9525 16.524 29.9298H16.5963C16.7885 29.9095 16.9807 29.8846 17.1729 29.8574L17.3809 29.8257C17.5731 29.7963 17.763 29.7623 17.953 29.7239L18.2582 29.6582L18.5318 29.5949C18.9705 29.4892 19.4016 29.364 19.8251 29.2192H19.8478C21.203 28.7549 22.4851 28.0995 23.6554 27.2727L23.73 27.2207C24.0692 26.9785 24.3948 26.7205 24.7113 26.4534L24.9374 26.2542L25.1635 26.0619C25.3015 25.9329 25.4394 25.8016 25.5728 25.6703L25.6926 25.5481C25.8079 25.4304 25.9187 25.3218 26.0341 25.1882L26.1494 25.0637L26.2149 24.9891C17.4804 32.4149 6.18406 22.1962 10.9391 13.4349" fill="#00AABC" class="cyan-color"/>
<path d="M14.9955 1.23884e-06C12.5082 -0.00101048 10.0598 0.617671 7.871 1.80026C5.68222 2.98285 3.82191 4.69215 2.45781 6.77404C2.01598 7.44493 1.62884 8.15034 1.30013 8.88343C5.23667 11.7397 9.70456 10.3568 13.1934 8.89701C17.1232 7.25386 23.522 6.25801 27.7254 12.0204C26.6222 10.9291 25.2117 10.2021 23.6836 9.93697C22.1554 9.67188 20.5828 9.88147 19.1771 10.5375C17.7715 11.1936 16.6001 12.2647 15.8207 13.6069C15.0412 14.949 14.6909 16.4979 14.8169 18.0452C15.1628 22.2301 18.8258 25.2674 23.011 25.0003C25.7017 24.8306 30 22.3048 30 15.017C29.9994 11.034 28.4183 7.21439 25.6045 4.39823C22.7907 1.58207 18.9745 1.19362e-06 14.9955 1.23884e-06Z" fill="#DD3C27" class="red-color"/>
</svg>
